<svg xmlns="http://www.w3.org/2000/svg" xmlns:svg="http://www.w3.org/2000/svg" id="svg2" width="64" height="64" version="1.1" viewBox="0 0 64 64"><metadata id="metadata4"/><g id="layer1" transform="translate(0,16)"><path style="color:#fff;font-style:normal;font-variant:normal;font-weight:400;font-stretch:normal;font-size:medium;line-height:normal;font-family:sans-serif;font-variant-ligatures:none;font-variant-position:normal;font-variant-caps:normal;font-variant-numeric:normal;font-variant-alternates:normal;font-feature-settings:normal;text-indent:0;text-align:start;text-decoration:none;text-decoration-line:none;text-decoration-style:solid;text-decoration-color:#fff;letter-spacing:normal;word-spacing:normal;text-transform:none;direction:ltr;block-progression:tb;writing-mode:lr-tb;baseline-shift:baseline;text-anchor:start;white-space:normal;shape-padding:0;clip-rule:nonzero;display:inline;overflow:visible;visibility:visible;opacity:1;isolation:auto;mix-blend-mode:normal;color-interpolation:sRGB;color-interpolation-filters:linearRGB;solid-color:#fff;solid-opacity:1;fill:#fff;fill-opacity:.86274511;fill-rule:evenodd;stroke:none;stroke-width:8;stroke-linecap:butt;stroke-linejoin:round;stroke-miterlimit:4;stroke-dasharray:none;stroke-dashoffset:0;stroke-opacity:1;color-rendering:auto;image-rendering:auto;shape-rendering:auto;text-rendering:auto;enable-background:accumulate" id="rect10131" d="m 27.039062,10 c 0.696136,1.25778 1.017579,2.642875 1.017579,4 0,1.902572 -0.616917,3.862838 -2.039063,5.445312 -1.41024,1.569229 -3.681547,2.558811 -6.017578,2.542969 -0.0034,-3e-5 -0.0064,0.002 -0.0098,0.002 0,0.0034 -0.002,0.0064 -0.002,0.0098 0.01584,2.336031 -0.973741,4.607337 -2.542969,6.017578 -1.582475,1.422146 -3.54274,2.039063 -5.445312,2.039063 -1.357125,0 -2.7422197,-0.321443 -4,-1.017579 L 8,50 c 2.209e-4,2.209048 1.7909525,3.999779 4,4 l 48,0 c 2.209048,-2.21e-4 3.999779,-1.790952 4,-4 l 0,-36 c -2.21e-4,-2.209048 -1.790952,-3.999779 -4,-4 z M 56,18 56,46 16,46 Z" transform="translate(0,-16)"/><path style="color:#fff;font-style:normal;font-variant:normal;font-weight:400;font-stretch:normal;font-size:medium;line-height:normal;font-family:sans-serif;font-variant-ligatures:none;font-variant-position:normal;font-variant-caps:normal;font-variant-numeric:normal;font-variant-alternates:normal;font-feature-settings:normal;text-indent:0;text-align:start;text-decoration:none;text-decoration-line:none;text-decoration-style:solid;text-decoration-color:#fff;letter-spacing:normal;word-spacing:normal;text-transform:none;direction:ltr;block-progression:tb;writing-mode:lr-tb;baseline-shift:baseline;text-anchor:start;white-space:normal;shape-padding:0;clip-rule:nonzero;display:inline;overflow:visible;visibility:visible;opacity:1;isolation:auto;mix-blend-mode:normal;color-interpolation:sRGB;color-interpolation-filters:linearRGB;solid-color:#fff;solid-opacity:1;fill:#fff;fill-opacity:.86274511;fill-rule:nonzero;stroke:none;stroke-width:8;stroke-linecap:round;stroke-linejoin:round;stroke-miterlimit:4;stroke-dasharray:none;stroke-dashoffset:0;stroke-opacity:1;color-rendering:auto;image-rendering:auto;shape-rendering:auto;text-rendering:auto;enable-background:accumulate" id="path10173" d="M 11.939453 1.9433594 A 4.0004 4.0004 0 0 0 8 6 L 8 10 L 4 10 A 4.0004 4.0004 0 1 0 4 18 L 8 18 L 8 22 A 4.0004 4.0004 0 1 0 16 22 L 16 18 L 20 18 A 4.0004 4.0004 0 1 0 20 10 L 16 10 L 16 6 A 4.0004 4.0004 0 0 0 11.939453 1.9433594 z" transform="translate(0,-16)"/></g></svg>