<svg xmlns="http://www.w3.org/2000/svg" xmlns:svg="http://www.w3.org/2000/svg" id="svg2" width="64" height="64" version="1.1" viewBox="0 0 64 64"><metadata id="metadata4"/><g id="layer1" transform="translate(0,16)"><path id="path3" style="color:#fff;fill:#fff;fill-opacity:.85882354;stroke-linejoin:round;stroke-dashoffset:30.2362;paint-order:markers fill stroke" d="M 52 -10 A 6 6 0 0 0 47.757812 -8.2421875 L 40.585938 -1.0703125 L 39.828125 -1.828125 L 35.828125 -5.828125 A 4 4 0 0 0 33 -7 A 4 4 0 0 0 30.171875 -5.828125 A 4 4 0 0 0 30.171875 -0.171875 L 31.34375 1 L 8.171875 24.171875 C 3.5106692 28.833081 4.214861 35.87111 8.171875 39.828125 C 12.12889 43.78514 19.16692 44.48933 23.828125 39.828125 L 47 16.65625 L 48.171875 17.828125 A 4 4 0 0 0 53.828125 17.828125 A 4 4 0 0 0 53.828125 12.171875 L 49.828125 8.171875 L 49.070312 7.4140625 L 56.242188 0.2421875 A 6 6 0 0 0 56.242188 -8.2421875 A 6 6 0 0 0 52 -10 z M 37 6.65625 L 41.34375 11 L 18.171875 34.171875 C 16.833092 35.510658 14.585147 34.928897 13.828125 34.171875 C 13.071104 33.414853 12.489343 31.166907 13.828125 29.828125 L 37 6.65625 z"/></g></svg>