<svg xmlns="http://www.w3.org/2000/svg" xmlns:svg="http://www.w3.org/2000/svg" id="svg2" width="64" height="64" version="1.1" viewBox="0 0 64 64"><metadata id="metadata4"/><g id="layer1" transform="translate(0,16)"><path style="opacity:1;fill:#c80000;fill-opacity:.86274511;fill-rule:nonzero;stroke:none;stroke-width:8;stroke-linecap:round;stroke-linejoin:miter;stroke-miterlimit:4;stroke-dasharray:none;stroke-dashoffset:0;stroke-opacity:.8627451" id="path16794" d="M 31.5 3 A 28.5 29 0 0 0 3 32 A 28.5 29 0 0 0 31.5 61 A 28.5 29 0 0 0 60 32 A 28.5 29 0 0 0 31.5 3 z M 19.958984 15.958984 A 4.0004 4.0004 0 0 1 22.828125 17.171875 L 32 26.34375 L 41.171875 17.171875 A 4.0004 4.0004 0 0 1 43.921875 15.960938 A 4.0004 4.0004 0 0 1 46.828125 22.828125 L 37.65625 32 L 46.828125 41.171875 A 4.0004 4.0004 0 1 1 41.171875 46.828125 L 32 37.65625 L 22.828125 46.828125 A 4.0004 4.0004 0 1 1 17.171875 41.171875 L 26.34375 32 L 17.171875 22.828125 A 4.0004 4.0004 0 0 1 19.958984 15.958984 z" transform="translate(0,-16)"/></g></svg>