<svg xmlns="http://www.w3.org/2000/svg" xmlns:svg="http://www.w3.org/2000/svg" id="svg2" width="64" height="64" version="1.1" viewBox="0 0 64 64"><metadata id="metadata4"/><g id="layer1" transform="translate(0,16)"><path style="opacity:1;fill:none;fill-opacity:.8627451;fill-rule:nonzero;stroke:#fff;stroke-width:6;stroke-linecap:butt;stroke-linejoin:miter;stroke-miterlimit:4;stroke-dasharray:none;stroke-dashoffset:0;stroke-opacity:.8627451" id="path17515" d="M 5,15.999999 A 27,27 0 0 1 32.000001,-11 27,27 0 0 1 59,16"/><path id="circle17519" style="opacity:1;fill:none;fill-opacity:.8627451;fill-rule:nonzero;stroke:#fff;stroke-width:5.99999952;stroke-linecap:butt;stroke-linejoin:miter;stroke-miterlimit:4;stroke-dasharray:none;stroke-dashoffset:0;stroke-opacity:.8627451" d="M 25,16 A 6.9999995,7.0000005 0 0 1 32,8.9999995 6.9999995,7.0000005 0 0 1 39,16"/><path style="opacity:1;fill:none;fill-opacity:.8627451;fill-rule:nonzero;stroke:#fff;stroke-width:6;stroke-linecap:butt;stroke-linejoin:round;stroke-miterlimit:4;stroke-dasharray:none;stroke-dashoffset:0;stroke-opacity:.8627451" id="path17521" d="m 5,16 0,27 20,0 0,-27"/><path id="path17523" d="m 39,16 0,27 20,0 0,-27" style="opacity:1;fill:none;fill-opacity:.8627451;fill-rule:nonzero;stroke:#fff;stroke-width:6;stroke-linecap:butt;stroke-linejoin:round;stroke-miterlimit:4;stroke-dasharray:none;stroke-dashoffset:0;stroke-opacity:.8627451"/><rect style="opacity:1;fill:#fff;fill-opacity:.8627451;fill-rule:evenodd;stroke:none;stroke-width:1px;stroke-linecap:butt;stroke-linejoin:miter;stroke-miterlimit:4;stroke-dasharray:none;stroke-dashoffset:0;stroke-opacity:1" id="rect17525" width="14" height="14" x="8" y="26"/><rect id="rect17527" width="14" height="14" x="42" y="26" style="opacity:1;fill:#fff;fill-opacity:.8627451;fill-rule:evenodd;stroke:none;stroke-width:1px;stroke-linecap:butt;stroke-linejoin:miter;stroke-miterlimit:4;stroke-dasharray:none;stroke-dashoffset:0;stroke-opacity:1"/></g></svg>