<svg xmlns="http://www.w3.org/2000/svg" xmlns:svg="http://www.w3.org/2000/svg" id="svg2" width="64" height="64" version="1.1" viewBox="0 0 64 64"><metadata id="metadata4"/><g id="layer1" transform="translate(0,16)"><rect style="opacity:1;fill:none;stroke:#fff;stroke-width:6;stroke-linejoin:round;stroke-dasharray:none;stroke-dashoffset:30.2362;stroke-opacity:.86;paint-order:fill markers stroke;stop-color:#fff" id="rect1" width="54" height="44" x="5" y="-6"/><path id="rect2" d="m 14,23 6,0 a 2,2 45 0 1 2,2 v 4 a 2,2 135 0 1 -2,2 h -6 a 2,2 45 0 1 -2,-2 v -4 a 2,2 135 0 1 2,-2 z" style="opacity:1;fill:#fff;fill-opacity:.86;stroke:none;stroke-width:6;stroke-linejoin:round;stroke-dasharray:none;stroke-dashoffset:30.2362;stroke-opacity:.86;paint-order:fill markers stroke;stop-color:#fff"/><path id="rect3" d="m 28,23 22,0 a 2,2 45 0 1 2,2 v 4 a 2,2 135 0 1 -2,2 H 28 a 2,2 45 0 1 -2,-2 v -4 a 2,2 135 0 1 2,-2 z" style="opacity:1;fill:#fff;fill-opacity:.86;stroke:none;stroke-width:6;stroke-linejoin:round;stroke-dasharray:none;stroke-dashoffset:30.2362;stroke-opacity:.86;paint-order:fill markers stroke;stop-color:#fff"/></g></svg>