<svg xmlns="http://www.w3.org/2000/svg" xmlns:svg="http://www.w3.org/2000/svg" id="svg2" width="64" height="64" version="1.1" viewBox="0 0 64 64"><metadata id="metadata4"/><g id="layer1" transform="translate(0,16)"><path style="fill:none;fill-opacity:1;stroke:#212121;stroke-width:6;stroke-linecap:round;stroke-linejoin:round;stroke-miterlimit:4;stroke-dasharray:none;stroke-opacity:.86" id="path946" d="M 14,25 H 5 V 43 H 59 V 25 h -9"/><path id="rect14587-1-0" style="fill:#212121;fill-opacity:.862745;fill-rule:evenodd;stroke:none;stroke-width:.999998px;stroke-linecap:butt;stroke-linejoin:miter;stroke-miterlimit:4;stroke-dasharray:none;stroke-dashoffset:0;stroke-opacity:1" d="M 32 2 C 31.048865 2 30.097731 2.4455555 29.503906 3.3359375 L 13.503906 27.335938 C 12.17538 29.329599 13.60424 31.999487 16 32 L 24 32 L 24 47 C 24 49.216 25.784 51 28 51 L 36 51 C 38.216 51 40 49.216 40 47 L 40 32 L 48 32 C 50.39576 31.999487 51.82462 29.329598 50.496094 27.335938 L 34.496094 3.3359375 C 33.902269 2.4455555 32.951135 2 32 2 z" transform="translate(0,-16)"/></g></svg>