<svg xmlns="http://www.w3.org/2000/svg" xmlns:svg="http://www.w3.org/2000/svg" id="svg2" width="64" height="64" version="1.1" viewBox="0 0 64 64"><metadata id="metadata4"/><g id="layer1" transform="translate(0,16)"><g id="g1068"><rect style="opacity:1;fill:#212121;fill-opacity:.862745;fill-rule:evenodd;stroke:none;stroke-width:.999995px;stroke-linecap:butt;stroke-linejoin:miter;stroke-miterlimit:4;stroke-dasharray:none;stroke-dashoffset:0;stroke-opacity:1" id="rect14587-1" width="22" height="22" x="2" y="-14" rx="4" ry="4"/><rect style="opacity:1;fill:#212121;fill-opacity:.862745;fill-rule:evenodd;stroke:none;stroke-width:.999995px;stroke-linecap:butt;stroke-linejoin:miter;stroke-miterlimit:4;stroke-dasharray:none;stroke-dashoffset:0;stroke-opacity:1" id="rect14587-1-0" width="22" height="22" x="2" y="24" rx="4" ry="4"/><rect style="opacity:1;fill:#212121;fill-opacity:.862745;fill-rule:evenodd;stroke:none;stroke-width:1;stroke-linecap:butt;stroke-linejoin:miter;stroke-miterlimit:4;stroke-dasharray:none;stroke-dashoffset:0;stroke-opacity:1" id="rect14587-1-0-4" width="22" height="22" x="40" y="5" rx="4" ry="4"/><path id="path1020" style="color:#212121;font-style:normal;font-variant:normal;font-weight:400;font-stretch:normal;font-size:medium;line-height:normal;font-family:sans-serif;font-variant-ligatures:normal;font-variant-position:normal;font-variant-caps:normal;font-variant-numeric:normal;font-variant-alternates:normal;font-variant-east-asian:normal;font-feature-settings:normal;font-variation-settings:normal;text-indent:0;text-align:start;text-decoration:none;text-decoration-line:none;text-decoration-style:solid;text-decoration-color:#212121;letter-spacing:normal;word-spacing:normal;text-transform:none;writing-mode:lr-tb;direction:ltr;text-orientation:mixed;dominant-baseline:auto;baseline-shift:baseline;text-anchor:start;white-space:normal;shape-padding:0;shape-margin:0;inline-size:0;clip-rule:nonzero;display:inline;overflow:visible;visibility:visible;isolation:auto;mix-blend-mode:normal;color-interpolation:sRGB;color-interpolation-filters:linearRGB;solid-color:#212121;solid-opacity:1;vector-effect:none;fill:#212121;fill-opacity:.86;fill-rule:evenodd;stroke:none;stroke-width:6;stroke-linecap:square;stroke-linejoin:miter;stroke-miterlimit:4;stroke-dasharray:none;stroke-dashoffset:0;stroke-opacity:1;paint-order:markers stroke fill;color-rendering:auto;image-rendering:auto;shape-rendering:auto;text-rendering:auto;enable-background:accumulate;stop-color:#212121;stop-opacity:1;opacity:1" d="M 24 15.144531 L 24 20 C 24 20.597822 23.862036 21.159573 23.628906 21.667969 L 39.658203 29.683594 L 40 29.855469 L 40 25 C 40 24.402178 40.137964 23.840427 40.371094 23.332031 L 24.341797 15.316406 L 24 15.144531 z M 40 34.144531 L 39.658203 34.316406 L 23.628906 42.332031 C 23.862036 42.840427 24 43.402178 24 44 L 24 48.855469 L 24.341797 48.683594 L 40.371094 40.667969 C 40.137964 40.159573 40 39.597822 40 39 L 40 34.144531 z" transform="translate(0,-16)"/></g></g></svg>