<svg xmlns="http://www.w3.org/2000/svg" xmlns:svg="http://www.w3.org/2000/svg" id="svg2" width="64" height="64" version="1.1" viewBox="0 0 64 64"><metadata id="metadata4"/><g id="layer1" transform="translate(0,16)"><path style="opacity:1;fill:#212121;fill-opacity:.86274511;fill-rule:evenodd;stroke:none;stroke-width:1px;stroke-linecap:butt;stroke-linejoin:miter;stroke-miterlimit:4;stroke-dasharray:none;stroke-dashoffset:0;stroke-opacity:1" id="rect8971" d="m 0,26 64,0 0,12 -64,0 z"/><path style="opacity:1;fill:#212121;fill-opacity:.47058824;fill-rule:evenodd;stroke:none;stroke-width:1px;stroke-linecap:butt;stroke-linejoin:miter;stroke-miterlimit:4;stroke-dasharray:none;stroke-dashoffset:0;stroke-opacity:1" id="rect8969" d="M 4 11 C 1.784 11 0 12.784 0 15 L 0 26 L 4 26 A 6.0006 6.0006 0 1 1 4 38 L 0 38 L 0 42 L 64 42 L 64 38 L 60 38 A 6.0006 6.0006 0 1 1 60 26 L 64 26 L 64 15 C 64 12.784 62.216 11 60 11 L 4 11 z M 31.910156 21.916016 A 6.0006 6.0006 0 0 1 38 28 L 38 34 A 6.0006 6.0006 0 1 1 26 34 L 26 28 A 6.0006 6.0006 0 0 1 31.910156 21.916016 z" transform="translate(0,-16)"/></g></svg>