<svg xmlns="http://www.w3.org/2000/svg" xmlns:svg="http://www.w3.org/2000/svg" xmlns:xlink="http://www.w3.org/1999/xlink" id="svg2" width="64" height="64" version="1.1" viewBox="0 0 64 64"><metadata id="metadata4"/><g id="layer1" transform="translate(0,16)"><g id="text6526" aria-label="B" style="font-weight:700;font-size:84.507px;line-height:1.25;font-family:Ubuntu;-inkscape-font-specification:'Ubuntu Bold';text-align:center;text-anchor:middle;fill:#212121;fill-opacity:.86;stroke-width:.990317"><path id="path32392" d="M 28.408453,46 Q 23.591554,46 18.774654,45.661972 14.042262,45.408451 8.887335,44.30986 v -56.788706 q 4.056336,-0.760564 8.873235,-1.098592 4.8169,-0.422535 8.957743,-0.422535 5.577462,0 10.225347,0.84507 4.732392,0.760564 8.112673,2.704225 3.38028,1.9436607 5.239434,5.1549268 1.943661,3.1267592 1.943661,7.7746444 0,7.0140813 -6.76056,11.0704178 5.577462,2.112675 7.60563,5.746476 2.028168,3.633801 2.028168,8.197179 0,9.211264 -6.76056,13.859149 Q 41.676052,46 28.408453,46 Z M 21.7324,19.718322 v 15.126754 q 1.436619,0.169014 3.126759,0.253521 1.69014,0.08451 3.718308,0.08451 5.91549,0 9.549291,-1.69014 3.633801,-1.69014 3.633801,-6.253519 0,-4.056336 -3.042252,-5.746476 -3.042252,-1.774647 -8.704221,-1.774647 z m 0,-10.0563335 h 6.422532 q 6.084504,0 8.704221,-1.5211261 2.619717,-1.605633 2.619717,-5.0704202 0,-3.54929414 -2.704224,-4.9859132 -2.704224,-1.4366191 -7.943658,-1.4366191 -1.69014,0 -3.633801,0.084507 -1.943661,0 -3.464787,0.169014 z"/></g></g></svg>